<?xml version="1.0" encoding="utf-8"?>
<svg version="1.1" id="Layer_1" xmlns="http://www.w3.org/2000/svg" xmlns:xlink="http://www.w3.org/1999/xlink" x="0px" y="0px"
	 viewBox="0 0 40 44.1" style="enable-background:new 0 0 40 44.1;" xml:space="preserve">
<style type="text/css">
	.st0{fill:#FFFFFF;}
</style>
<g>
	<g>
		<path d="M32.1,13.8c0.2,4.5-2.3,7.7-5,9.5c-1.9,1.3-13.4,1.3-14.9,0.6c-0.4-0.2-0.2-0.2-0.6-0.6c-0.7-0.8-1.8-2-1.9-2.6
			c-0.2-1.3-8.4,2.9-7.7-0.7c0-0.2,1.3-1.2,2.4-2.1c0.1-0.1,0.5-0.3,0.3-0.3c-2.4,0.1-5-3.4-4.8-4.6c0.4-2.6,7.4,2.6,7.5-0.9
			c0.1-2.5,5.3-9.3,13.1-9.1c2.4,0.1,1.2-3.5,3-3c1.3,0.3,2.1,2.7,3.2,4.3C28.8,7.1,31.9,8.9,32.1,13.8z"/>
	</g>
	<g>
		<path d="M39.6,33.4c-0.9,7.3-9.6,10.6-18.2,10.6c-9.6,0-16.7-3.9-17-10.2c-0.4-8.7,11.3-15,21-10.5c2.4,1.1,3.7,2.5,7.2,0.5
			C38.6,20.4,41,22,39.6,33.4z"/>
	</g>
	<g>
		<path d="M38.4,33.8c-0.8,6.6-8.8,9.7-16.8,9.7c-8.9,0-15.5-3.6-15.7-9.3c-0.4-7.9,10.4-13.6,19.4-9.6c2.2,1,3.5,2.2,6.6,0.4
			C37.5,21.9,39.7,23.4,38.4,33.8z"/>
	</g>
	<path d="M31.1,14.7c0.2,5.3-6.3,9.5-10.5,9.2c-14.9-1.1-7.7-6-11.2-9c-3.5-3,3.9-9.4,8.3-10c1.3-0.2,1.1-0.3,3.9-0.6
		c1.1-0.1,0.7-2.9,1.8-2.4c0.9,0.4,1.4,1.7,2.6,3C28.1,7.6,31,9.8,31.1,14.7z"/>
	<path d="M26.7,32c-0.1,2-3.3,4.5-7.3,4.5S12.6,35.7,12,32c-0.4-2.5-0.1-5.4,7.3-4.5c4,0.5,10.6-0.4,8.3,2.2
		c-0.2,0.2-1.4,1.1-2.4,1.3C23.2,31.3,26.8,29.6,26.7,32z"/>
	<path d="M25.7,31.9c-0.1,1.7-2.8,3.9-6.3,3.9s-5.8-0.8-6.3-3.9c-0.3-2.1-0.1-4.7,6.3-3.9c3.5,0.4,9.1-0.3,7.1,1.9
		c-0.1,0.2-1.2,1-2.1,1.1C22.7,31.2,25.8,29.7,25.7,31.9z"/>
	<ellipse transform="matrix(0.6667 -0.7453 0.7453 0.6667 -3.3523 14.581)" class="st0" cx="14.6" cy="11" rx="3.1" ry="2.4"/>
	<ellipse transform="matrix(0.2727 -0.9621 0.9621 0.2727 0.7133 22.6288)" cx="15.3" cy="10.8" rx="1" ry="0.9"/>
</g>
</svg>
